P3
4    6   255
255 0 0    250 0 5    245 0 10    240 0 15
255 0 0    250 5 0    245 10 0    240 15 0
0 255 0    0 250 5    0 245 10    0 240 15
0 255 0    5 250 0    10 245 0    15 240 0
0 0 255    0 5 250    0 10 245    0 15 245
0 0 255    5 0 250    10 0 245    15 0 245

